{"title":"Kurokouchi (2013) Complete (Hardsubbed) BANKAI","uid":9418305,"size":1836973185,"categoryP":"video","categoryS":"tv_shows","magnet":"?xt=urn:btih:608c0ae2dcfba59a5baca361fee888d5b45034d9&amp;dn=Kurokouchi+%282013%29+Complete+%28Hardsubbed%29+BANKAI&amp;tr=udp%3A%2F%2Ftracker.openbittorrent.com%3A80&amp;tr=udp%3A%2F%2Fopen.demonii.com%3A1337&amp;tr=udp%3A%2F%2Ftracker.coppersurfer.tk%3A6969&amp;tr=udp%3A%2F%2Fexodus.desync.com%3A6969","seeders":1,"leechers":2,"uploader":"8ankai","files":-1,"time":1388503402,"description":"Kurokouchi (2013)\n &lt;a href=&quot;\nhttp://i.imgur.com/Gb2U7vI.jpg&quot; rel=&quot;nofollow&quot; target=&quot;_NEW&quot;&gt;\nhttp://i.imgur.com/Gb2U7vI.jpg&lt;/a&gt;\n\nINFO:\nFormat : Renzoku\nGenre : Crime\nEpisodes : 10\nBroadcast network : TBS\nTheme song : Honton Koto by TOKIO\nEncoder : BANKAI  \nSubtitle : ENGLISH HARDSUBBED\n\n* English Subtitles by subie06\n* RAWs by furransu and micehell\n\n\nCAST:\nNagase Tomoya as Kurokouchi Keita\nGouriki Ayame as Seike Mayo\nKashii Yu as Sawa Machiko\nRiju Go as Kakizaki Kiyohiko\nKoichi Mantaro as Ushii Takeshi\nHasegawa Tomoharu as Isomura Tetsuya\nEndo Kaname as Tsubokura Taichi\nKawakita Mayuko as Tenten\nAzuma Mikihisa as Goto Kaname\nKaneko Ken as Shima Mitsuo\nDaichi Yasuo as Yakushizi Makoto\nKazama Morio as Dojima Noriyuki\nWatabe Atsuro as Sawawatari Kazunari\nIto Masayuki as Tatsui Hideki\nKawamura Yosuke as Isomura Tetsuya\nIshimaru Kenjiro as Goda Bungo\n\n\nSYNOPSIS:\nThe drama is based on the same-titled manga which showcases a very unorthodox hero that uses every dirty little trick to resolve the open cases. Kurokouchi Keita is the black sheep of the police force. He works alone, and doesn't think twice about extorting money from the dirty politicians by getting hold of their achilles heels. Using the money and whatever bits of information acquired through underhanded means, he gets closer and closer to the ultimate unresolved crime of the Showa era; the 300 million bank heist.\n\nOne day, the new rookie Seike Mayo, is assigned as Kurokouchi's partner. Excellent, but naive, she is the exact opposite of Kurokouchi, but nonetheless, the duo combi relentlessly chase down the criminals. --TBS\n\n\nVIDEO INFO:\nFormat : MPEG-4\nFormat profile : Base Media\nCodec ID : isom\nFile size : 167 MiB\nDuration : 46mn 34s\nOverall bit rate mode : Variable\nOverall bit rate : 502 Kbps\n\nVideo\nFormat : AVC\nFormat/Info : Advanced Video Codec\nFormat profile : &lt;a class=&quot;__cf_email__&quot; href=&quot;/cdn-cgi/l/email-protection&quot; data-cfemail=&quot;0a42636d624a4639243b&quot;&gt;[email&amp;#160;protected]&lt;/a&gt;&lt;script cf-hash='f9e31' type=&quot;text/javascript&quot;&gt;\n/* &lt;![CDATA[ */!function(){try{var t=&quot;currentScript&quot;in document?document.currentScript:function(){for(var t=document.getElementsByTagName(&quot;script&quot;),e=t.length;e--;)if(t[e].getAttribute(&quot;cf-hash&quot;))return t[e]}();if(t&amp;&amp;t.previousSibling){var e,r,n,i,c=t.previousSibling,a=c.getAttribute(&quot;data-cfemail&quot;);if(a){for(e=&quot;&quot;,r=parseInt(a.substr(0,2),16),n=2;a.length-n;n+=2)i=parseInt(a.substr(n,2),16)^r,e+=String.fromCharCode(i);e=document.createTextNode(e),c.parentNode.replaceChild(e,c)}}}catch(u){}}();/* ]]&gt; */&lt;/script&gt;\nFormat settings, CABAC : Yes\nFormat settings, ReFrames : 4 frames\nCodec ID : avc1\nCodec ID/Info : Advanced Video Coding\nDuration : 46mn 34s\nBit rate : 306 Kbps\nMaximum bit rate : 1 658 Kbps\nWidth : 848 pixels\nHeight : 480 pixels\nDisplay aspect ratio : 16:9\nFrame rate mode : Constant\nFrame rate : 29.970 fps\nColor space : YUV\nChroma subsampling : 4:2:0\nBit depth : 8 bits\nScan type : Progressive\nBits/(Pixel*Frame) : 0.025\nStream size : 102 MiB (61%)\n\nAudio\nFormat : AAC\nFormat/Info : Advanced Audio Codec\nFormat profile : LC\nCodec ID : 40\nDuration : 46mn 34s\nBit rate mode : Variable\nBit rate : 192 Kbps\nMaximum bit rate : 223 Kbps\nChannel(s) : 2 channels\nChannel positions : Front: L R\nSampling rate : 48.0 KHz\nCompression mode : Lossy\nStream size : 64.0 MiB (38%)\n\n\nSCREENSHOT: &lt;a href=&quot;\nhttp://i.imgur.com/ljEAddC.jpg&quot; rel=&quot;nofollow&quot; target=&quot;_NEW&quot;&gt;\nhttp://i.imgur.com/ljEAddC.jpg&lt;/a&gt; &lt;a href=&quot;\nhttp://i.imgur.com/4w1WxRq.jpg&quot; rel=&quot;nofollow&quot; target=&quot;_NEW&quot;&gt;\nhttp://i.imgur.com/4w1WxRq.jpg&lt;/a&gt; &lt;a href=&quot;\nhttp://i.imgur.com/07GdV3p.jpg&quot; rel=&quot;nofollow&quot; target=&quot;_NEW&quot;&gt;\nhttp://i.imgur.com/07GdV3p.jpg&lt;/a&gt;\n\nEnjoy &amp; Please Seed!!","torrent":{"xt":"urn:btih:608c0ae2dcfba59a5baca361fee888d5b45034d9","amp;dn":"Kurokouchi+%282013%29+Complete+%28Hardsubbed%29+BANKAI","amp;tr":["udp%3A%2F%2Ftracker.openbittorrent.com%3A80","udp%3A%2F%2Fopen.demonii.com%3A1337","udp%3A%2F%2Ftracker.coppersurfer.tk%3A6969","udp%3A%2F%2Fexodus.desync.com%3A6969"],"infoHash":"608c0ae2dcfba59a5baca361fee888d5b45034d9","infoHashBuffer":{"type":"Buffer","data":[96,140,10,226,220,251,165,154,91,172,163,97,254,232,136,213,180,80,52,217]},"announce":[],"urlList":[]}}